<svg xmlns="http://www.w3.org/2000/svg" viewBox="0 0 640 480" role="img" aria-label="Safety Footwear placeholder image">
  <rect width="640" height="480" fill="#EDEFF3"/>
  <rect x="0.5" y="0.5" width="639" height="479" fill="none" stroke="#C6CDD9" stroke-width="1"/>
  <g transform="translate(320 200)"><g fill="none" stroke="#111722" stroke-width="6" stroke-linejoin="round" stroke-linecap="round">
    <path d="M-30 -60 v56 c0 8 -6 14 -14 20 l-18 12 a14 14 0 0 0 -6 12 v6 a6 6 0 0 0 6 6 h72 a6 6 0 0 0 6 -6 v-6 a18 18 0 0 0 -12 -17 l-20 -8 v-70"/>
    <path d="M-30 -60 h24"/>
  </g></g>
  <text x="320" y="330" text-anchor="middle" font-family="ui-monospace, monospace" font-size="13" letter-spacing="2" fill="#111722" font-weight="600">SAFETY FOOTWEAR</text>
  <text x="320" y="356" text-anchor="middle" font-family="ui-monospace, monospace" font-size="11" letter-spacing="3" fill="#D62410">PLACEHOLDER IMAGE</text>
</svg>