<svg xmlns="http://www.w3.org/2000/svg" viewBox="0 0 640 480" role="img" aria-label="Safety Glove placeholder image">
  <rect width="640" height="480" fill="#EDEFF3"/>
  <rect x="0.5" y="0.5" width="639" height="479" fill="none" stroke="#C6CDD9" stroke-width="1"/>
  <g transform="translate(320 200)"><g fill="none" stroke="#111722" stroke-width="6" stroke-linejoin="round" stroke-linecap="round">
    <path d="M-50 40 v-70 a14 14 0 0 1 28 0 v20 M-22 -30 v-30 a14 14 0 0 1 28 0 v30 M6 -30 v-26 a14 14 0 0 1 28 0 v26 M34 -20 v-16 a12 12 0 0 1 24 0 v56 a48 48 0 0 1 -48 48 h-30 a40 40 0 0 1 -40 -40 v-8"/>
  </g></g>
  <text x="320" y="330" text-anchor="middle" font-family="ui-monospace, monospace" font-size="13" letter-spacing="2" fill="#111722" font-weight="600">SAFETY GLOVE</text>
  <text x="320" y="356" text-anchor="middle" font-family="ui-monospace, monospace" font-size="11" letter-spacing="3" fill="#D62410">PLACEHOLDER IMAGE</text>
</svg>